<mxfile host="app.diagrams.net" modified="2021-10-22T16:50:51.706Z" agent="5.0 (Windows NT 10.0; Win64; x64) AppleWebKit/537.36 (KHTML, like Gecko) Chrome/95.0.4638.54 Safari/537.36" etag="RGEhPKdvBqjUcK-VEw6G" version="15.5.8" type="github">
  <diagram id="R2lEEEUBdFMjLlhIrx00" name="Page-1">
    <mxGraphModel dx="2234" dy="1875" grid="1" gridSize="10" guides="1" tooltips="1" connect="1" arrows="1" fold="1" page="1" pageScale="1" pageWidth="850" pageHeight="1100" math="0" shadow="0" extFonts="Permanent Marker^https://fonts.googleapis.com/css?family=Permanent+Marker">
      <root>
        <mxCell id="0" />
        <mxCell id="1" parent="0" />
        <mxCell id="C-vyLk0tnHw3VtMMgP7b-2" value="customer" style="shape=table;startSize=30;container=1;collapsible=1;childLayout=tableLayout;fixedRows=1;rowLines=0;fontStyle=1;align=center;resizeLast=1;fillColor=#e3c800;strokeColor=#B09500;fontColor=default;strokeWidth=3;perimeterSpacing=0;shadow=0;rounded=1;sketch=0;swimlaneFillColor=default;fontSize=10;labelBackgroundColor=none;horizontal=1;" parent="1" vertex="1">
          <mxGeometry x="23" y="10" width="187" height="250" as="geometry" />
        </mxCell>
        <mxCell id="C-vyLk0tnHw3VtMMgP7b-3" value="" style="shape=partialRectangle;collapsible=0;dropTarget=0;pointerEvents=0;fillColor=none;points=[[0,0.5],[1,0.5]];portConstraint=eastwest;top=0;left=0;right=0;bottom=1;" parent="C-vyLk0tnHw3VtMMgP7b-2" vertex="1">
          <mxGeometry y="30" width="187" height="30" as="geometry" />
        </mxCell>
        <mxCell id="C-vyLk0tnHw3VtMMgP7b-4" value="PK" style="shape=partialRectangle;overflow=hidden;connectable=0;fillColor=none;top=0;left=0;bottom=0;right=0;fontStyle=1;" parent="C-vyLk0tnHw3VtMMgP7b-3" vertex="1">
          <mxGeometry width="30" height="30" as="geometry">
            <mxRectangle width="30" height="30" as="alternateBounds" />
          </mxGeometry>
        </mxCell>
        <mxCell id="C-vyLk0tnHw3VtMMgP7b-5" value="customer_id" style="shape=partialRectangle;overflow=hidden;connectable=0;fillColor=none;top=0;left=0;bottom=0;right=0;align=left;spacingLeft=6;fontStyle=5;fontSize=10;" parent="C-vyLk0tnHw3VtMMgP7b-3" vertex="1">
          <mxGeometry x="30" width="157" height="30" as="geometry">
            <mxRectangle width="157" height="30" as="alternateBounds" />
          </mxGeometry>
        </mxCell>
        <mxCell id="C-vyLk0tnHw3VtMMgP7b-6" value="" style="shape=partialRectangle;collapsible=0;dropTarget=0;pointerEvents=0;fillColor=none;points=[[0,0.5],[1,0.5]];portConstraint=eastwest;top=0;left=0;right=0;bottom=0;" parent="C-vyLk0tnHw3VtMMgP7b-2" vertex="1">
          <mxGeometry y="60" width="187" height="39" as="geometry" />
        </mxCell>
        <mxCell id="C-vyLk0tnHw3VtMMgP7b-7" value="" style="shape=partialRectangle;overflow=hidden;connectable=0;fillColor=none;top=0;left=0;bottom=0;right=0;" parent="C-vyLk0tnHw3VtMMgP7b-6" vertex="1">
          <mxGeometry width="30" height="39" as="geometry">
            <mxRectangle width="30" height="39" as="alternateBounds" />
          </mxGeometry>
        </mxCell>
        <mxCell id="C-vyLk0tnHw3VtMMgP7b-8" value="full_name&#xa;        first_name&#xa;        last_name" style="shape=partialRectangle;overflow=hidden;connectable=0;fillColor=none;top=0;left=0;bottom=0;right=0;align=left;spacingLeft=6;fontSize=10;" parent="C-vyLk0tnHw3VtMMgP7b-6" vertex="1">
          <mxGeometry x="30" width="157" height="39" as="geometry">
            <mxRectangle width="157" height="39" as="alternateBounds" />
          </mxGeometry>
        </mxCell>
        <mxCell id="C-vyLk0tnHw3VtMMgP7b-9" value="" style="shape=partialRectangle;collapsible=0;dropTarget=0;pointerEvents=0;fillColor=none;points=[[0,0.5],[1,0.5]];portConstraint=eastwest;top=0;left=0;right=0;bottom=0;" parent="C-vyLk0tnHw3VtMMgP7b-2" vertex="1">
          <mxGeometry y="99" width="187" height="27" as="geometry" />
        </mxCell>
        <mxCell id="C-vyLk0tnHw3VtMMgP7b-10" value="" style="shape=partialRectangle;overflow=hidden;connectable=0;fillColor=none;top=0;left=0;bottom=0;right=0;" parent="C-vyLk0tnHw3VtMMgP7b-9" vertex="1">
          <mxGeometry width="30" height="27" as="geometry">
            <mxRectangle width="30" height="27" as="alternateBounds" />
          </mxGeometry>
        </mxCell>
        <mxCell id="C-vyLk0tnHw3VtMMgP7b-11" value="{phone_number}" style="shape=partialRectangle;overflow=hidden;connectable=0;fillColor=none;top=0;left=0;bottom=0;right=0;align=left;spacingLeft=6;fontSize=10;" parent="C-vyLk0tnHw3VtMMgP7b-9" vertex="1">
          <mxGeometry x="30" width="157" height="27" as="geometry">
            <mxRectangle width="157" height="27" as="alternateBounds" />
          </mxGeometry>
        </mxCell>
        <mxCell id="v3DIgEk8iNA0IUUkxwRB-10" value="" style="shape=partialRectangle;collapsible=0;dropTarget=0;pointerEvents=0;fillColor=none;points=[[0,0.5],[1,0.5]];portConstraint=eastwest;top=0;left=0;right=0;bottom=0;" vertex="1" parent="C-vyLk0tnHw3VtMMgP7b-2">
          <mxGeometry y="126" width="187" height="27" as="geometry" />
        </mxCell>
        <mxCell id="v3DIgEk8iNA0IUUkxwRB-11" value="" style="shape=partialRectangle;overflow=hidden;connectable=0;fillColor=none;top=0;left=0;bottom=0;right=0;" vertex="1" parent="v3DIgEk8iNA0IUUkxwRB-10">
          <mxGeometry width="30" height="27" as="geometry">
            <mxRectangle width="30" height="27" as="alternateBounds" />
          </mxGeometry>
        </mxCell>
        <mxCell id="v3DIgEk8iNA0IUUkxwRB-12" value="email_address" style="shape=partialRectangle;overflow=hidden;connectable=0;fillColor=none;top=0;left=0;bottom=0;right=0;align=left;spacingLeft=6;fontSize=10;" vertex="1" parent="v3DIgEk8iNA0IUUkxwRB-10">
          <mxGeometry x="30" width="157" height="27" as="geometry">
            <mxRectangle width="157" height="27" as="alternateBounds" />
          </mxGeometry>
        </mxCell>
        <mxCell id="v3DIgEk8iNA0IUUkxwRB-13" value="" style="shape=partialRectangle;collapsible=0;dropTarget=0;pointerEvents=0;fillColor=none;points=[[0,0.5],[1,0.5]];portConstraint=eastwest;top=0;left=0;right=0;bottom=0;" vertex="1" parent="C-vyLk0tnHw3VtMMgP7b-2">
          <mxGeometry y="153" width="187" height="27" as="geometry" />
        </mxCell>
        <mxCell id="v3DIgEk8iNA0IUUkxwRB-14" value="" style="shape=partialRectangle;overflow=hidden;connectable=0;fillColor=none;top=0;left=0;bottom=0;right=0;" vertex="1" parent="v3DIgEk8iNA0IUUkxwRB-13">
          <mxGeometry width="30" height="27" as="geometry">
            <mxRectangle width="30" height="27" as="alternateBounds" />
          </mxGeometry>
        </mxCell>
        <mxCell id="v3DIgEk8iNA0IUUkxwRB-15" value="date_of_birth" style="shape=partialRectangle;overflow=hidden;connectable=0;fillColor=none;top=0;left=0;bottom=0;right=0;align=left;spacingLeft=6;fontSize=10;" vertex="1" parent="v3DIgEk8iNA0IUUkxwRB-13">
          <mxGeometry x="30" width="157" height="27" as="geometry">
            <mxRectangle width="157" height="27" as="alternateBounds" />
          </mxGeometry>
        </mxCell>
        <mxCell id="v3DIgEk8iNA0IUUkxwRB-16" value="" style="shape=partialRectangle;collapsible=0;dropTarget=0;pointerEvents=0;fillColor=none;points=[[0,0.5],[1,0.5]];portConstraint=eastwest;top=0;left=0;right=0;bottom=0;" vertex="1" parent="C-vyLk0tnHw3VtMMgP7b-2">
          <mxGeometry y="180" width="187" height="41" as="geometry" />
        </mxCell>
        <mxCell id="v3DIgEk8iNA0IUUkxwRB-17" value="" style="shape=partialRectangle;overflow=hidden;connectable=0;fillColor=none;top=0;left=0;bottom=0;right=0;" vertex="1" parent="v3DIgEk8iNA0IUUkxwRB-16">
          <mxGeometry width="30" height="41" as="geometry">
            <mxRectangle width="30" height="41" as="alternateBounds" />
          </mxGeometry>
        </mxCell>
        <mxCell id="v3DIgEk8iNA0IUUkxwRB-18" value="address&#xa;        city&#xa;        street" style="shape=partialRectangle;overflow=hidden;connectable=0;fillColor=none;top=0;left=0;bottom=0;right=0;align=left;spacingLeft=6;fontSize=10;" vertex="1" parent="v3DIgEk8iNA0IUUkxwRB-16">
          <mxGeometry x="30" width="157" height="41" as="geometry">
            <mxRectangle width="157" height="41" as="alternateBounds" />
          </mxGeometry>
        </mxCell>
        <mxCell id="v3DIgEk8iNA0IUUkxwRB-19" value="" style="shape=partialRectangle;collapsible=0;dropTarget=0;pointerEvents=0;fillColor=none;points=[[0,0.5],[1,0.5]];portConstraint=eastwest;top=0;left=0;right=0;bottom=0;" vertex="1" parent="C-vyLk0tnHw3VtMMgP7b-2">
          <mxGeometry y="221" width="187" height="29" as="geometry" />
        </mxCell>
        <mxCell id="v3DIgEk8iNA0IUUkxwRB-20" value="" style="shape=partialRectangle;overflow=hidden;connectable=0;fillColor=none;top=0;left=0;bottom=0;right=0;" vertex="1" parent="v3DIgEk8iNA0IUUkxwRB-19">
          <mxGeometry width="30" height="29" as="geometry">
            <mxRectangle width="30" height="29" as="alternateBounds" />
          </mxGeometry>
        </mxCell>
        <mxCell id="v3DIgEk8iNA0IUUkxwRB-21" value="gender" style="shape=partialRectangle;overflow=hidden;connectable=0;fillColor=none;top=0;left=0;bottom=0;right=0;align=left;spacingLeft=6;fontSize=10;" vertex="1" parent="v3DIgEk8iNA0IUUkxwRB-19">
          <mxGeometry x="30" width="157" height="29" as="geometry">
            <mxRectangle width="157" height="29" as="alternateBounds" />
          </mxGeometry>
        </mxCell>
        <mxCell id="v3DIgEk8iNA0IUUkxwRB-54" value="vehicles" style="shape=table;startSize=30;container=1;collapsible=1;childLayout=tableLayout;fixedRows=1;rowLines=0;fontStyle=1;align=center;resizeLast=1;fillColor=#e3c800;strokeColor=#B09500;fontColor=default;strokeWidth=3;perimeterSpacing=0;shadow=0;rounded=1;sketch=0;swimlaneFillColor=default;fontSize=10;labelBackgroundColor=none;horizontal=1;" vertex="1" parent="1">
          <mxGeometry x="500" y="-50" width="187" height="210.00000000000023" as="geometry" />
        </mxCell>
        <mxCell id="v3DIgEk8iNA0IUUkxwRB-55" value="" style="shape=partialRectangle;collapsible=0;dropTarget=0;pointerEvents=0;fillColor=none;points=[[0,0.5],[1,0.5]];portConstraint=eastwest;top=0;left=0;right=0;bottom=1;" vertex="1" parent="v3DIgEk8iNA0IUUkxwRB-54">
          <mxGeometry y="30" width="187" height="30" as="geometry" />
        </mxCell>
        <mxCell id="v3DIgEk8iNA0IUUkxwRB-56" value="PK" style="shape=partialRectangle;overflow=hidden;connectable=0;fillColor=none;top=0;left=0;bottom=0;right=0;fontStyle=1;" vertex="1" parent="v3DIgEk8iNA0IUUkxwRB-55">
          <mxGeometry width="30" height="30" as="geometry">
            <mxRectangle width="30" height="30" as="alternateBounds" />
          </mxGeometry>
        </mxCell>
        <mxCell id="v3DIgEk8iNA0IUUkxwRB-57" value="VIN" style="shape=partialRectangle;overflow=hidden;connectable=0;fillColor=none;top=0;left=0;bottom=0;right=0;align=left;spacingLeft=6;fontStyle=5;fontSize=10;" vertex="1" parent="v3DIgEk8iNA0IUUkxwRB-55">
          <mxGeometry x="30" width="157" height="30" as="geometry">
            <mxRectangle width="157" height="30" as="alternateBounds" />
          </mxGeometry>
        </mxCell>
        <mxCell id="v3DIgEk8iNA0IUUkxwRB-58" value="" style="shape=partialRectangle;collapsible=0;dropTarget=0;pointerEvents=0;fillColor=none;points=[[0,0.5],[1,0.5]];portConstraint=eastwest;top=0;left=0;right=0;bottom=0;" vertex="1" parent="v3DIgEk8iNA0IUUkxwRB-54">
          <mxGeometry y="60" width="187" height="39" as="geometry" />
        </mxCell>
        <mxCell id="v3DIgEk8iNA0IUUkxwRB-59" value="" style="shape=partialRectangle;overflow=hidden;connectable=0;fillColor=none;top=0;left=0;bottom=0;right=0;" vertex="1" parent="v3DIgEk8iNA0IUUkxwRB-58">
          <mxGeometry width="30" height="39" as="geometry">
            <mxRectangle width="30" height="39" as="alternateBounds" />
          </mxGeometry>
        </mxCell>
        <mxCell id="v3DIgEk8iNA0IUUkxwRB-60" value="VDS" style="shape=partialRectangle;overflow=hidden;connectable=0;fillColor=none;top=0;left=0;bottom=0;right=0;align=left;spacingLeft=6;fontSize=10;" vertex="1" parent="v3DIgEk8iNA0IUUkxwRB-58">
          <mxGeometry x="30" width="157" height="39" as="geometry">
            <mxRectangle width="157" height="39" as="alternateBounds" />
          </mxGeometry>
        </mxCell>
        <mxCell id="v3DIgEk8iNA0IUUkxwRB-61" value="" style="shape=partialRectangle;collapsible=0;dropTarget=0;pointerEvents=0;fillColor=none;points=[[0,0.5],[1,0.5]];portConstraint=eastwest;top=0;left=0;right=0;bottom=0;" vertex="1" parent="v3DIgEk8iNA0IUUkxwRB-54">
          <mxGeometry y="99" width="187" height="27" as="geometry" />
        </mxCell>
        <mxCell id="v3DIgEk8iNA0IUUkxwRB-62" value="" style="shape=partialRectangle;overflow=hidden;connectable=0;fillColor=none;top=0;left=0;bottom=0;right=0;" vertex="1" parent="v3DIgEk8iNA0IUUkxwRB-61">
          <mxGeometry width="30" height="27" as="geometry">
            <mxRectangle width="30" height="27" as="alternateBounds" />
          </mxGeometry>
        </mxCell>
        <mxCell id="v3DIgEk8iNA0IUUkxwRB-63" value="VIS" style="shape=partialRectangle;overflow=hidden;connectable=0;fillColor=none;top=0;left=0;bottom=0;right=0;align=left;spacingLeft=6;fontSize=10;" vertex="1" parent="v3DIgEk8iNA0IUUkxwRB-61">
          <mxGeometry x="30" width="157" height="27" as="geometry">
            <mxRectangle width="157" height="27" as="alternateBounds" />
          </mxGeometry>
        </mxCell>
        <mxCell id="v3DIgEk8iNA0IUUkxwRB-64" value="" style="shape=partialRectangle;collapsible=0;dropTarget=0;pointerEvents=0;fillColor=none;points=[[0,0.5],[1,0.5]];portConstraint=eastwest;top=0;left=0;right=0;bottom=0;" vertex="1" parent="v3DIgEk8iNA0IUUkxwRB-54">
          <mxGeometry y="126" width="187" height="27" as="geometry" />
        </mxCell>
        <mxCell id="v3DIgEk8iNA0IUUkxwRB-65" value="" style="shape=partialRectangle;overflow=hidden;connectable=0;fillColor=none;top=0;left=0;bottom=0;right=0;" vertex="1" parent="v3DIgEk8iNA0IUUkxwRB-64">
          <mxGeometry width="30" height="27" as="geometry">
            <mxRectangle width="30" height="27" as="alternateBounds" />
          </mxGeometry>
        </mxCell>
        <mxCell id="v3DIgEk8iNA0IUUkxwRB-66" value="WYI" style="shape=partialRectangle;overflow=hidden;connectable=0;fillColor=none;top=0;left=0;bottom=0;right=0;align=left;spacingLeft=6;fontSize=10;" vertex="1" parent="v3DIgEk8iNA0IUUkxwRB-64">
          <mxGeometry x="30" width="157" height="27" as="geometry">
            <mxRectangle width="157" height="27" as="alternateBounds" />
          </mxGeometry>
        </mxCell>
        <mxCell id="v3DIgEk8iNA0IUUkxwRB-67" value="" style="shape=partialRectangle;collapsible=0;dropTarget=0;pointerEvents=0;fillColor=none;points=[[0,0.5],[1,0.5]];portConstraint=eastwest;top=0;left=0;right=0;bottom=0;" vertex="1" parent="v3DIgEk8iNA0IUUkxwRB-54">
          <mxGeometry y="153" width="187" height="57" as="geometry" />
        </mxCell>
        <mxCell id="v3DIgEk8iNA0IUUkxwRB-68" value="" style="shape=partialRectangle;overflow=hidden;connectable=0;fillColor=none;top=0;left=0;bottom=0;right=0;" vertex="1" parent="v3DIgEk8iNA0IUUkxwRB-67">
          <mxGeometry width="30" height="57" as="geometry">
            <mxRectangle width="30" height="57" as="alternateBounds" />
          </mxGeometry>
        </mxCell>
        <mxCell id="v3DIgEk8iNA0IUUkxwRB-69" value="WMI&#xa;        country&#xa;        manufacturer" style="shape=partialRectangle;overflow=hidden;connectable=0;fillColor=none;top=0;left=0;bottom=0;right=0;align=left;spacingLeft=6;fontSize=10;" vertex="1" parent="v3DIgEk8iNA0IUUkxwRB-67">
          <mxGeometry x="30" width="157" height="57" as="geometry">
            <mxRectangle width="157" height="57" as="alternateBounds" />
          </mxGeometry>
        </mxCell>
        <mxCell id="v3DIgEk8iNA0IUUkxwRB-76" value="models" style="shape=table;startSize=30;container=1;collapsible=1;childLayout=tableLayout;fixedRows=1;rowLines=0;fontStyle=1;align=center;resizeLast=1;fillColor=#e3c800;strokeColor=#B09500;fontColor=default;strokeWidth=3;perimeterSpacing=0;shadow=0;rounded=1;sketch=0;swimlaneFillColor=default;fontSize=10;labelBackgroundColor=none;horizontal=1;" vertex="1" parent="1">
          <mxGeometry x="120" y="340" width="187" height="180.00000000000023" as="geometry" />
        </mxCell>
        <mxCell id="v3DIgEk8iNA0IUUkxwRB-77" value="" style="shape=partialRectangle;collapsible=0;dropTarget=0;pointerEvents=0;fillColor=none;points=[[0,0.5],[1,0.5]];portConstraint=eastwest;top=0;left=0;right=0;bottom=1;" vertex="1" parent="v3DIgEk8iNA0IUUkxwRB-76">
          <mxGeometry y="30" width="187" height="30" as="geometry" />
        </mxCell>
        <mxCell id="v3DIgEk8iNA0IUUkxwRB-78" value="PK" style="shape=partialRectangle;overflow=hidden;connectable=0;fillColor=none;top=0;left=0;bottom=0;right=0;fontStyle=1;" vertex="1" parent="v3DIgEk8iNA0IUUkxwRB-77">
          <mxGeometry width="30" height="30" as="geometry">
            <mxRectangle width="30" height="30" as="alternateBounds" />
          </mxGeometry>
        </mxCell>
        <mxCell id="v3DIgEk8iNA0IUUkxwRB-79" value="model_id" style="shape=partialRectangle;overflow=hidden;connectable=0;fillColor=none;top=0;left=0;bottom=0;right=0;align=left;spacingLeft=6;fontStyle=5;fontSize=10;" vertex="1" parent="v3DIgEk8iNA0IUUkxwRB-77">
          <mxGeometry x="30" width="157" height="30" as="geometry">
            <mxRectangle width="157" height="30" as="alternateBounds" />
          </mxGeometry>
        </mxCell>
        <mxCell id="v3DIgEk8iNA0IUUkxwRB-80" value="" style="shape=partialRectangle;collapsible=0;dropTarget=0;pointerEvents=0;fillColor=none;points=[[0,0.5],[1,0.5]];portConstraint=eastwest;top=0;left=0;right=0;bottom=0;" vertex="1" parent="v3DIgEk8iNA0IUUkxwRB-76">
          <mxGeometry y="60" width="187" height="39" as="geometry" />
        </mxCell>
        <mxCell id="v3DIgEk8iNA0IUUkxwRB-81" value="" style="shape=partialRectangle;overflow=hidden;connectable=0;fillColor=none;top=0;left=0;bottom=0;right=0;" vertex="1" parent="v3DIgEk8iNA0IUUkxwRB-80">
          <mxGeometry width="30" height="39" as="geometry">
            <mxRectangle width="30" height="39" as="alternateBounds" />
          </mxGeometry>
        </mxCell>
        <mxCell id="v3DIgEk8iNA0IUUkxwRB-82" value="model_name" style="shape=partialRectangle;overflow=hidden;connectable=0;fillColor=none;top=0;left=0;bottom=0;right=0;align=left;spacingLeft=6;fontSize=10;" vertex="1" parent="v3DIgEk8iNA0IUUkxwRB-80">
          <mxGeometry x="30" width="157" height="39" as="geometry">
            <mxRectangle width="157" height="39" as="alternateBounds" />
          </mxGeometry>
        </mxCell>
        <mxCell id="v3DIgEk8iNA0IUUkxwRB-83" value="" style="shape=partialRectangle;collapsible=0;dropTarget=0;pointerEvents=0;fillColor=none;points=[[0,0.5],[1,0.5]];portConstraint=eastwest;top=0;left=0;right=0;bottom=0;" vertex="1" parent="v3DIgEk8iNA0IUUkxwRB-76">
          <mxGeometry y="99" width="187" height="27" as="geometry" />
        </mxCell>
        <mxCell id="v3DIgEk8iNA0IUUkxwRB-84" value="" style="shape=partialRectangle;overflow=hidden;connectable=0;fillColor=none;top=0;left=0;bottom=0;right=0;" vertex="1" parent="v3DIgEk8iNA0IUUkxwRB-83">
          <mxGeometry width="30" height="27" as="geometry">
            <mxRectangle width="30" height="27" as="alternateBounds" />
          </mxGeometry>
        </mxCell>
        <mxCell id="v3DIgEk8iNA0IUUkxwRB-85" value="model_year" style="shape=partialRectangle;overflow=hidden;connectable=0;fillColor=none;top=0;left=0;bottom=0;right=0;align=left;spacingLeft=6;fontSize=10;" vertex="1" parent="v3DIgEk8iNA0IUUkxwRB-83">
          <mxGeometry x="30" width="157" height="27" as="geometry">
            <mxRectangle width="157" height="27" as="alternateBounds" />
          </mxGeometry>
        </mxCell>
        <mxCell id="v3DIgEk8iNA0IUUkxwRB-86" value="" style="shape=partialRectangle;collapsible=0;dropTarget=0;pointerEvents=0;fillColor=none;points=[[0,0.5],[1,0.5]];portConstraint=eastwest;top=0;left=0;right=0;bottom=0;" vertex="1" parent="v3DIgEk8iNA0IUUkxwRB-76">
          <mxGeometry y="126" width="187" height="27" as="geometry" />
        </mxCell>
        <mxCell id="v3DIgEk8iNA0IUUkxwRB-87" value="" style="shape=partialRectangle;overflow=hidden;connectable=0;fillColor=none;top=0;left=0;bottom=0;right=0;" vertex="1" parent="v3DIgEk8iNA0IUUkxwRB-86">
          <mxGeometry width="30" height="27" as="geometry">
            <mxRectangle width="30" height="27" as="alternateBounds" />
          </mxGeometry>
        </mxCell>
        <mxCell id="v3DIgEk8iNA0IUUkxwRB-88" value="{model_color}" style="shape=partialRectangle;overflow=hidden;connectable=0;fillColor=none;top=0;left=0;bottom=0;right=0;align=left;spacingLeft=6;fontSize=10;" vertex="1" parent="v3DIgEk8iNA0IUUkxwRB-86">
          <mxGeometry x="30" width="157" height="27" as="geometry">
            <mxRectangle width="157" height="27" as="alternateBounds" />
          </mxGeometry>
        </mxCell>
        <mxCell id="v3DIgEk8iNA0IUUkxwRB-178" value="" style="shape=partialRectangle;collapsible=0;dropTarget=0;pointerEvents=0;fillColor=none;points=[[0,0.5],[1,0.5]];portConstraint=eastwest;top=0;left=0;right=0;bottom=0;" vertex="1" parent="v3DIgEk8iNA0IUUkxwRB-76">
          <mxGeometry y="153" width="187" height="27" as="geometry" />
        </mxCell>
        <mxCell id="v3DIgEk8iNA0IUUkxwRB-179" value="" style="shape=partialRectangle;overflow=hidden;connectable=0;fillColor=none;top=0;left=0;bottom=0;right=0;" vertex="1" parent="v3DIgEk8iNA0IUUkxwRB-178">
          <mxGeometry width="30" height="27" as="geometry">
            <mxRectangle width="30" height="27" as="alternateBounds" />
          </mxGeometry>
        </mxCell>
        <mxCell id="v3DIgEk8iNA0IUUkxwRB-180" value="brand_name" style="shape=partialRectangle;overflow=hidden;connectable=0;fillColor=none;top=0;left=0;bottom=0;right=0;align=left;spacingLeft=6;fontSize=10;" vertex="1" parent="v3DIgEk8iNA0IUUkxwRB-178">
          <mxGeometry x="30" width="157" height="27" as="geometry">
            <mxRectangle width="157" height="27" as="alternateBounds" />
          </mxGeometry>
        </mxCell>
        <mxCell id="v3DIgEk8iNA0IUUkxwRB-92" value="brands" style="shape=table;startSize=30;container=1;collapsible=1;childLayout=tableLayout;fixedRows=1;rowLines=0;fontStyle=1;align=center;resizeLast=1;fillColor=#e3c800;strokeColor=#B09500;fontColor=default;strokeWidth=3;perimeterSpacing=0;shadow=0;rounded=1;sketch=0;swimlaneFillColor=default;fontSize=10;labelBackgroundColor=none;horizontal=1;" vertex="1" parent="1">
          <mxGeometry x="570" y="520" width="187" height="153.00000000000023" as="geometry" />
        </mxCell>
        <mxCell id="v3DIgEk8iNA0IUUkxwRB-93" value="" style="shape=partialRectangle;collapsible=0;dropTarget=0;pointerEvents=0;fillColor=none;points=[[0,0.5],[1,0.5]];portConstraint=eastwest;top=0;left=0;right=0;bottom=1;" vertex="1" parent="v3DIgEk8iNA0IUUkxwRB-92">
          <mxGeometry y="30" width="187" height="30" as="geometry" />
        </mxCell>
        <mxCell id="v3DIgEk8iNA0IUUkxwRB-94" value="PK" style="shape=partialRectangle;overflow=hidden;connectable=0;fillColor=none;top=0;left=0;bottom=0;right=0;fontStyle=1;" vertex="1" parent="v3DIgEk8iNA0IUUkxwRB-93">
          <mxGeometry width="30" height="30" as="geometry">
            <mxRectangle width="30" height="30" as="alternateBounds" />
          </mxGeometry>
        </mxCell>
        <mxCell id="v3DIgEk8iNA0IUUkxwRB-95" value="brand_id" style="shape=partialRectangle;overflow=hidden;connectable=0;fillColor=none;top=0;left=0;bottom=0;right=0;align=left;spacingLeft=6;fontStyle=5;fontSize=10;" vertex="1" parent="v3DIgEk8iNA0IUUkxwRB-93">
          <mxGeometry x="30" width="157" height="30" as="geometry">
            <mxRectangle width="157" height="30" as="alternateBounds" />
          </mxGeometry>
        </mxCell>
        <mxCell id="v3DIgEk8iNA0IUUkxwRB-96" value="" style="shape=partialRectangle;collapsible=0;dropTarget=0;pointerEvents=0;fillColor=none;points=[[0,0.5],[1,0.5]];portConstraint=eastwest;top=0;left=0;right=0;bottom=0;" vertex="1" parent="v3DIgEk8iNA0IUUkxwRB-92">
          <mxGeometry y="60" width="187" height="39" as="geometry" />
        </mxCell>
        <mxCell id="v3DIgEk8iNA0IUUkxwRB-97" value="" style="shape=partialRectangle;overflow=hidden;connectable=0;fillColor=none;top=0;left=0;bottom=0;right=0;" vertex="1" parent="v3DIgEk8iNA0IUUkxwRB-96">
          <mxGeometry width="30" height="39" as="geometry">
            <mxRectangle width="30" height="39" as="alternateBounds" />
          </mxGeometry>
        </mxCell>
        <mxCell id="v3DIgEk8iNA0IUUkxwRB-98" value="brand_name" style="shape=partialRectangle;overflow=hidden;connectable=0;fillColor=none;top=0;left=0;bottom=0;right=0;align=left;spacingLeft=6;fontSize=10;" vertex="1" parent="v3DIgEk8iNA0IUUkxwRB-96">
          <mxGeometry x="30" width="157" height="39" as="geometry">
            <mxRectangle width="157" height="39" as="alternateBounds" />
          </mxGeometry>
        </mxCell>
        <mxCell id="v3DIgEk8iNA0IUUkxwRB-99" value="" style="shape=partialRectangle;collapsible=0;dropTarget=0;pointerEvents=0;fillColor=none;points=[[0,0.5],[1,0.5]];portConstraint=eastwest;top=0;left=0;right=0;bottom=0;" vertex="1" parent="v3DIgEk8iNA0IUUkxwRB-92">
          <mxGeometry y="99" width="187" height="27" as="geometry" />
        </mxCell>
        <mxCell id="v3DIgEk8iNA0IUUkxwRB-100" value="" style="shape=partialRectangle;overflow=hidden;connectable=0;fillColor=none;top=0;left=0;bottom=0;right=0;" vertex="1" parent="v3DIgEk8iNA0IUUkxwRB-99">
          <mxGeometry width="30" height="27" as="geometry">
            <mxRectangle width="30" height="27" as="alternateBounds" />
          </mxGeometry>
        </mxCell>
        <mxCell id="v3DIgEk8iNA0IUUkxwRB-101" value="country" style="shape=partialRectangle;overflow=hidden;connectable=0;fillColor=none;top=0;left=0;bottom=0;right=0;align=left;spacingLeft=6;fontSize=10;" vertex="1" parent="v3DIgEk8iNA0IUUkxwRB-99">
          <mxGeometry x="30" width="157" height="27" as="geometry">
            <mxRectangle width="157" height="27" as="alternateBounds" />
          </mxGeometry>
        </mxCell>
        <mxCell id="v3DIgEk8iNA0IUUkxwRB-181" value="" style="shape=partialRectangle;collapsible=0;dropTarget=0;pointerEvents=0;fillColor=none;points=[[0,0.5],[1,0.5]];portConstraint=eastwest;top=0;left=0;right=0;bottom=0;" vertex="1" parent="v3DIgEk8iNA0IUUkxwRB-92">
          <mxGeometry y="126" width="187" height="27" as="geometry" />
        </mxCell>
        <mxCell id="v3DIgEk8iNA0IUUkxwRB-182" value="FK" style="shape=partialRectangle;overflow=hidden;connectable=0;fillColor=none;top=0;left=0;bottom=0;right=0;" vertex="1" parent="v3DIgEk8iNA0IUUkxwRB-181">
          <mxGeometry width="30" height="27" as="geometry">
            <mxRectangle width="30" height="27" as="alternateBounds" />
          </mxGeometry>
        </mxCell>
        <mxCell id="v3DIgEk8iNA0IUUkxwRB-183" value="model_id" style="shape=partialRectangle;overflow=hidden;connectable=0;fillColor=none;top=0;left=0;bottom=0;right=0;align=left;spacingLeft=6;fontSize=10;" vertex="1" parent="v3DIgEk8iNA0IUUkxwRB-181">
          <mxGeometry x="30" width="157" height="27" as="geometry">
            <mxRectangle width="157" height="27" as="alternateBounds" />
          </mxGeometry>
        </mxCell>
        <mxCell id="v3DIgEk8iNA0IUUkxwRB-105" value="options" style="shape=table;startSize=30;container=1;collapsible=1;childLayout=tableLayout;fixedRows=1;rowLines=0;fontStyle=1;align=center;resizeLast=1;fillColor=#e3c800;strokeColor=#B09500;fontColor=default;strokeWidth=3;perimeterSpacing=0;shadow=0;rounded=1;sketch=0;swimlaneFillColor=default;fontSize=10;labelBackgroundColor=none;horizontal=1;" vertex="1" parent="1">
          <mxGeometry x="730" y="290" width="187" height="153.00000000000023" as="geometry" />
        </mxCell>
        <mxCell id="v3DIgEk8iNA0IUUkxwRB-106" value="" style="shape=partialRectangle;collapsible=0;dropTarget=0;pointerEvents=0;fillColor=none;points=[[0,0.5],[1,0.5]];portConstraint=eastwest;top=0;left=0;right=0;bottom=1;" vertex="1" parent="v3DIgEk8iNA0IUUkxwRB-105">
          <mxGeometry y="30" width="187" height="30" as="geometry" />
        </mxCell>
        <mxCell id="v3DIgEk8iNA0IUUkxwRB-107" value="PK" style="shape=partialRectangle;overflow=hidden;connectable=0;fillColor=none;top=0;left=0;bottom=0;right=0;fontStyle=1;" vertex="1" parent="v3DIgEk8iNA0IUUkxwRB-106">
          <mxGeometry width="30" height="30" as="geometry">
            <mxRectangle width="30" height="30" as="alternateBounds" />
          </mxGeometry>
        </mxCell>
        <mxCell id="v3DIgEk8iNA0IUUkxwRB-108" value="option_id" style="shape=partialRectangle;overflow=hidden;connectable=0;fillColor=none;top=0;left=0;bottom=0;right=0;align=left;spacingLeft=6;fontStyle=5;fontSize=10;" vertex="1" parent="v3DIgEk8iNA0IUUkxwRB-106">
          <mxGeometry x="30" width="157" height="30" as="geometry">
            <mxRectangle width="157" height="30" as="alternateBounds" />
          </mxGeometry>
        </mxCell>
        <mxCell id="v3DIgEk8iNA0IUUkxwRB-109" value="" style="shape=partialRectangle;collapsible=0;dropTarget=0;pointerEvents=0;fillColor=none;points=[[0,0.5],[1,0.5]];portConstraint=eastwest;top=0;left=0;right=0;bottom=0;" vertex="1" parent="v3DIgEk8iNA0IUUkxwRB-105">
          <mxGeometry y="60" width="187" height="39" as="geometry" />
        </mxCell>
        <mxCell id="v3DIgEk8iNA0IUUkxwRB-110" value="" style="shape=partialRectangle;overflow=hidden;connectable=0;fillColor=none;top=0;left=0;bottom=0;right=0;" vertex="1" parent="v3DIgEk8iNA0IUUkxwRB-109">
          <mxGeometry width="30" height="39" as="geometry">
            <mxRectangle width="30" height="39" as="alternateBounds" />
          </mxGeometry>
        </mxCell>
        <mxCell id="v3DIgEk8iNA0IUUkxwRB-111" value="color" style="shape=partialRectangle;overflow=hidden;connectable=0;fillColor=none;top=0;left=0;bottom=0;right=0;align=left;spacingLeft=6;fontSize=10;" vertex="1" parent="v3DIgEk8iNA0IUUkxwRB-109">
          <mxGeometry x="30" width="157" height="39" as="geometry">
            <mxRectangle width="157" height="39" as="alternateBounds" />
          </mxGeometry>
        </mxCell>
        <mxCell id="v3DIgEk8iNA0IUUkxwRB-112" value="" style="shape=partialRectangle;collapsible=0;dropTarget=0;pointerEvents=0;fillColor=none;points=[[0,0.5],[1,0.5]];portConstraint=eastwest;top=0;left=0;right=0;bottom=0;" vertex="1" parent="v3DIgEk8iNA0IUUkxwRB-105">
          <mxGeometry y="99" width="187" height="27" as="geometry" />
        </mxCell>
        <mxCell id="v3DIgEk8iNA0IUUkxwRB-113" value="" style="shape=partialRectangle;overflow=hidden;connectable=0;fillColor=none;top=0;left=0;bottom=0;right=0;" vertex="1" parent="v3DIgEk8iNA0IUUkxwRB-112">
          <mxGeometry width="30" height="27" as="geometry">
            <mxRectangle width="30" height="27" as="alternateBounds" />
          </mxGeometry>
        </mxCell>
        <mxCell id="v3DIgEk8iNA0IUUkxwRB-114" value="transmission" style="shape=partialRectangle;overflow=hidden;connectable=0;fillColor=none;top=0;left=0;bottom=0;right=0;align=left;spacingLeft=6;fontSize=10;" vertex="1" parent="v3DIgEk8iNA0IUUkxwRB-112">
          <mxGeometry x="30" width="157" height="27" as="geometry">
            <mxRectangle width="157" height="27" as="alternateBounds" />
          </mxGeometry>
        </mxCell>
        <mxCell id="v3DIgEk8iNA0IUUkxwRB-115" value="" style="shape=partialRectangle;collapsible=0;dropTarget=0;pointerEvents=0;fillColor=none;points=[[0,0.5],[1,0.5]];portConstraint=eastwest;top=0;left=0;right=0;bottom=0;" vertex="1" parent="v3DIgEk8iNA0IUUkxwRB-105">
          <mxGeometry y="126" width="187" height="27" as="geometry" />
        </mxCell>
        <mxCell id="v3DIgEk8iNA0IUUkxwRB-116" value="" style="shape=partialRectangle;overflow=hidden;connectable=0;fillColor=none;top=0;left=0;bottom=0;right=0;" vertex="1" parent="v3DIgEk8iNA0IUUkxwRB-115">
          <mxGeometry width="30" height="27" as="geometry">
            <mxRectangle width="30" height="27" as="alternateBounds" />
          </mxGeometry>
        </mxCell>
        <mxCell id="v3DIgEk8iNA0IUUkxwRB-117" value="engine" style="shape=partialRectangle;overflow=hidden;connectable=0;fillColor=none;top=0;left=0;bottom=0;right=0;align=left;spacingLeft=6;fontSize=10;" vertex="1" parent="v3DIgEk8iNA0IUUkxwRB-115">
          <mxGeometry x="30" width="157" height="27" as="geometry">
            <mxRectangle width="157" height="27" as="alternateBounds" />
          </mxGeometry>
        </mxCell>
        <mxCell id="v3DIgEk8iNA0IUUkxwRB-121" value="dealers" style="shape=table;startSize=30;container=1;collapsible=1;childLayout=tableLayout;fixedRows=1;rowLines=0;fontStyle=1;align=center;resizeLast=1;fillColor=#e3c800;strokeColor=#B09500;fontColor=default;strokeWidth=3;perimeterSpacing=0;shadow=0;rounded=1;sketch=0;swimlaneFillColor=default;fontSize=10;labelBackgroundColor=none;horizontal=1;" vertex="1" parent="1">
          <mxGeometry x="1010" y="59" width="187" height="231.00000000000045" as="geometry" />
        </mxCell>
        <mxCell id="v3DIgEk8iNA0IUUkxwRB-122" value="" style="shape=partialRectangle;collapsible=0;dropTarget=0;pointerEvents=0;fillColor=none;points=[[0,0.5],[1,0.5]];portConstraint=eastwest;top=0;left=0;right=0;bottom=1;" vertex="1" parent="v3DIgEk8iNA0IUUkxwRB-121">
          <mxGeometry y="30" width="187" height="30" as="geometry" />
        </mxCell>
        <mxCell id="v3DIgEk8iNA0IUUkxwRB-123" value="PK" style="shape=partialRectangle;overflow=hidden;connectable=0;fillColor=none;top=0;left=0;bottom=0;right=0;fontStyle=1;" vertex="1" parent="v3DIgEk8iNA0IUUkxwRB-122">
          <mxGeometry width="30" height="30" as="geometry">
            <mxRectangle width="30" height="30" as="alternateBounds" />
          </mxGeometry>
        </mxCell>
        <mxCell id="v3DIgEk8iNA0IUUkxwRB-124" value="dealers_id" style="shape=partialRectangle;overflow=hidden;connectable=0;fillColor=none;top=0;left=0;bottom=0;right=0;align=left;spacingLeft=6;fontStyle=5;fontSize=10;" vertex="1" parent="v3DIgEk8iNA0IUUkxwRB-122">
          <mxGeometry x="30" width="157" height="30" as="geometry">
            <mxRectangle width="157" height="30" as="alternateBounds" />
          </mxGeometry>
        </mxCell>
        <mxCell id="v3DIgEk8iNA0IUUkxwRB-125" value="" style="shape=partialRectangle;collapsible=0;dropTarget=0;pointerEvents=0;fillColor=none;points=[[0,0.5],[1,0.5]];portConstraint=eastwest;top=0;left=0;right=0;bottom=0;" vertex="1" parent="v3DIgEk8iNA0IUUkxwRB-121">
          <mxGeometry y="60" width="187" height="39" as="geometry" />
        </mxCell>
        <mxCell id="v3DIgEk8iNA0IUUkxwRB-126" value="" style="shape=partialRectangle;overflow=hidden;connectable=0;fillColor=none;top=0;left=0;bottom=0;right=0;" vertex="1" parent="v3DIgEk8iNA0IUUkxwRB-125">
          <mxGeometry width="30" height="39" as="geometry">
            <mxRectangle width="30" height="39" as="alternateBounds" />
          </mxGeometry>
        </mxCell>
        <mxCell id="v3DIgEk8iNA0IUUkxwRB-127" value="dealer_name" style="shape=partialRectangle;overflow=hidden;connectable=0;fillColor=none;top=0;left=0;bottom=0;right=0;align=left;spacingLeft=6;fontSize=10;" vertex="1" parent="v3DIgEk8iNA0IUUkxwRB-125">
          <mxGeometry x="30" width="157" height="39" as="geometry">
            <mxRectangle width="157" height="39" as="alternateBounds" />
          </mxGeometry>
        </mxCell>
        <mxCell id="v3DIgEk8iNA0IUUkxwRB-128" value="" style="shape=partialRectangle;collapsible=0;dropTarget=0;pointerEvents=0;fillColor=none;points=[[0,0.5],[1,0.5]];portConstraint=eastwest;top=0;left=0;right=0;bottom=0;" vertex="1" parent="v3DIgEk8iNA0IUUkxwRB-121">
          <mxGeometry y="99" width="187" height="48" as="geometry" />
        </mxCell>
        <mxCell id="v3DIgEk8iNA0IUUkxwRB-129" value="" style="shape=partialRectangle;overflow=hidden;connectable=0;fillColor=none;top=0;left=0;bottom=0;right=0;" vertex="1" parent="v3DIgEk8iNA0IUUkxwRB-128">
          <mxGeometry width="30" height="48" as="geometry">
            <mxRectangle width="30" height="48" as="alternateBounds" />
          </mxGeometry>
        </mxCell>
        <mxCell id="v3DIgEk8iNA0IUUkxwRB-130" value="address&#xa;        city&#xa;        street" style="shape=partialRectangle;overflow=hidden;connectable=0;fillColor=none;top=0;left=0;bottom=0;right=0;align=left;spacingLeft=6;fontSize=10;" vertex="1" parent="v3DIgEk8iNA0IUUkxwRB-128">
          <mxGeometry x="30" width="157" height="48" as="geometry">
            <mxRectangle width="157" height="48" as="alternateBounds" />
          </mxGeometry>
        </mxCell>
        <mxCell id="v3DIgEk8iNA0IUUkxwRB-131" value="" style="shape=partialRectangle;collapsible=0;dropTarget=0;pointerEvents=0;fillColor=none;points=[[0,0.5],[1,0.5]];portConstraint=eastwest;top=0;left=0;right=0;bottom=0;" vertex="1" parent="v3DIgEk8iNA0IUUkxwRB-121">
          <mxGeometry y="147" width="187" height="30" as="geometry" />
        </mxCell>
        <mxCell id="v3DIgEk8iNA0IUUkxwRB-132" value="" style="shape=partialRectangle;overflow=hidden;connectable=0;fillColor=none;top=0;left=0;bottom=0;right=0;" vertex="1" parent="v3DIgEk8iNA0IUUkxwRB-131">
          <mxGeometry width="30" height="30" as="geometry">
            <mxRectangle width="30" height="30" as="alternateBounds" />
          </mxGeometry>
        </mxCell>
        <mxCell id="v3DIgEk8iNA0IUUkxwRB-133" value="{phone_number}" style="shape=partialRectangle;overflow=hidden;connectable=0;fillColor=none;top=0;left=0;bottom=0;right=0;align=left;spacingLeft=6;fontSize=10;" vertex="1" parent="v3DIgEk8iNA0IUUkxwRB-131">
          <mxGeometry x="30" width="157" height="30" as="geometry">
            <mxRectangle width="157" height="30" as="alternateBounds" />
          </mxGeometry>
        </mxCell>
        <mxCell id="v3DIgEk8iNA0IUUkxwRB-134" value="" style="shape=partialRectangle;collapsible=0;dropTarget=0;pointerEvents=0;fillColor=none;points=[[0,0.5],[1,0.5]];portConstraint=eastwest;top=0;left=0;right=0;bottom=0;" vertex="1" parent="v3DIgEk8iNA0IUUkxwRB-121">
          <mxGeometry y="177" width="187" height="27" as="geometry" />
        </mxCell>
        <mxCell id="v3DIgEk8iNA0IUUkxwRB-135" value="" style="shape=partialRectangle;overflow=hidden;connectable=0;fillColor=none;top=0;left=0;bottom=0;right=0;" vertex="1" parent="v3DIgEk8iNA0IUUkxwRB-134">
          <mxGeometry width="30" height="27" as="geometry">
            <mxRectangle width="30" height="27" as="alternateBounds" />
          </mxGeometry>
        </mxCell>
        <mxCell id="v3DIgEk8iNA0IUUkxwRB-136" value="email_address" style="shape=partialRectangle;overflow=hidden;connectable=0;fillColor=none;top=0;left=0;bottom=0;right=0;align=left;spacingLeft=6;fontSize=10;" vertex="1" parent="v3DIgEk8iNA0IUUkxwRB-134">
          <mxGeometry x="30" width="157" height="27" as="geometry">
            <mxRectangle width="157" height="27" as="alternateBounds" />
          </mxGeometry>
        </mxCell>
        <mxCell id="v3DIgEk8iNA0IUUkxwRB-137" value="" style="shape=partialRectangle;collapsible=0;dropTarget=0;pointerEvents=0;fillColor=none;points=[[0,0.5],[1,0.5]];portConstraint=eastwest;top=0;left=0;right=0;bottom=0;" vertex="1" parent="v3DIgEk8iNA0IUUkxwRB-121">
          <mxGeometry y="204" width="187" height="27" as="geometry" />
        </mxCell>
        <mxCell id="v3DIgEk8iNA0IUUkxwRB-138" value="" style="shape=partialRectangle;overflow=hidden;connectable=0;fillColor=none;top=0;left=0;bottom=0;right=0;" vertex="1" parent="v3DIgEk8iNA0IUUkxwRB-137">
          <mxGeometry width="30" height="27" as="geometry">
            <mxRectangle width="30" height="27" as="alternateBounds" />
          </mxGeometry>
        </mxCell>
        <mxCell id="v3DIgEk8iNA0IUUkxwRB-139" value="date_of_sale" style="shape=partialRectangle;overflow=hidden;connectable=0;fillColor=none;top=0;left=0;bottom=0;right=0;align=left;spacingLeft=6;fontSize=10;" vertex="1" parent="v3DIgEk8iNA0IUUkxwRB-137">
          <mxGeometry x="30" width="157" height="27" as="geometry">
            <mxRectangle width="157" height="27" as="alternateBounds" />
          </mxGeometry>
        </mxCell>
        <mxCell id="v3DIgEk8iNA0IUUkxwRB-140" value="suppliers" style="shape=table;startSize=30;container=1;collapsible=1;childLayout=tableLayout;fixedRows=1;rowLines=0;fontStyle=1;align=center;resizeLast=1;fillColor=#e3c800;strokeColor=#B09500;fontColor=default;strokeWidth=3;perimeterSpacing=0;shadow=0;rounded=1;sketch=0;swimlaneFillColor=default;fontSize=10;labelBackgroundColor=none;horizontal=1;" vertex="1" parent="1">
          <mxGeometry x="210" y="780" width="187" height="242.00000000000068" as="geometry" />
        </mxCell>
        <mxCell id="v3DIgEk8iNA0IUUkxwRB-141" value="" style="shape=partialRectangle;collapsible=0;dropTarget=0;pointerEvents=0;fillColor=none;points=[[0,0.5],[1,0.5]];portConstraint=eastwest;top=0;left=0;right=0;bottom=1;" vertex="1" parent="v3DIgEk8iNA0IUUkxwRB-140">
          <mxGeometry y="30" width="187" height="30" as="geometry" />
        </mxCell>
        <mxCell id="v3DIgEk8iNA0IUUkxwRB-142" value="PK" style="shape=partialRectangle;overflow=hidden;connectable=0;fillColor=none;top=0;left=0;bottom=0;right=0;fontStyle=1;" vertex="1" parent="v3DIgEk8iNA0IUUkxwRB-141">
          <mxGeometry width="30" height="30" as="geometry">
            <mxRectangle width="30" height="30" as="alternateBounds" />
          </mxGeometry>
        </mxCell>
        <mxCell id="v3DIgEk8iNA0IUUkxwRB-143" value="suplier_id" style="shape=partialRectangle;overflow=hidden;connectable=0;fillColor=none;top=0;left=0;bottom=0;right=0;align=left;spacingLeft=6;fontStyle=5;fontSize=10;" vertex="1" parent="v3DIgEk8iNA0IUUkxwRB-141">
          <mxGeometry x="30" width="157" height="30" as="geometry">
            <mxRectangle width="157" height="30" as="alternateBounds" />
          </mxGeometry>
        </mxCell>
        <mxCell id="v3DIgEk8iNA0IUUkxwRB-144" value="" style="shape=partialRectangle;collapsible=0;dropTarget=0;pointerEvents=0;fillColor=none;points=[[0,0.5],[1,0.5]];portConstraint=eastwest;top=0;left=0;right=0;bottom=0;" vertex="1" parent="v3DIgEk8iNA0IUUkxwRB-140">
          <mxGeometry y="60" width="187" height="50" as="geometry" />
        </mxCell>
        <mxCell id="v3DIgEk8iNA0IUUkxwRB-145" value="" style="shape=partialRectangle;overflow=hidden;connectable=0;fillColor=none;top=0;left=0;bottom=0;right=0;" vertex="1" parent="v3DIgEk8iNA0IUUkxwRB-144">
          <mxGeometry width="30" height="50" as="geometry">
            <mxRectangle width="30" height="50" as="alternateBounds" />
          </mxGeometry>
        </mxCell>
        <mxCell id="v3DIgEk8iNA0IUUkxwRB-146" value="suplier_full_name&#xa;        first_name&#xa;        last_name" style="shape=partialRectangle;overflow=hidden;connectable=0;fillColor=none;top=0;left=0;bottom=0;right=0;align=left;spacingLeft=6;fontSize=10;" vertex="1" parent="v3DIgEk8iNA0IUUkxwRB-144">
          <mxGeometry x="30" width="157" height="50" as="geometry">
            <mxRectangle width="157" height="50" as="alternateBounds" />
          </mxGeometry>
        </mxCell>
        <mxCell id="v3DIgEk8iNA0IUUkxwRB-147" value="" style="shape=partialRectangle;collapsible=0;dropTarget=0;pointerEvents=0;fillColor=none;points=[[0,0.5],[1,0.5]];portConstraint=eastwest;top=0;left=0;right=0;bottom=0;" vertex="1" parent="v3DIgEk8iNA0IUUkxwRB-140">
          <mxGeometry y="110" width="187" height="48" as="geometry" />
        </mxCell>
        <mxCell id="v3DIgEk8iNA0IUUkxwRB-148" value="" style="shape=partialRectangle;overflow=hidden;connectable=0;fillColor=none;top=0;left=0;bottom=0;right=0;" vertex="1" parent="v3DIgEk8iNA0IUUkxwRB-147">
          <mxGeometry width="30" height="48" as="geometry">
            <mxRectangle width="30" height="48" as="alternateBounds" />
          </mxGeometry>
        </mxCell>
        <mxCell id="v3DIgEk8iNA0IUUkxwRB-149" value="address&#xa;        city&#xa;        street" style="shape=partialRectangle;overflow=hidden;connectable=0;fillColor=none;top=0;left=0;bottom=0;right=0;align=left;spacingLeft=6;fontSize=10;" vertex="1" parent="v3DIgEk8iNA0IUUkxwRB-147">
          <mxGeometry x="30" width="157" height="48" as="geometry">
            <mxRectangle width="157" height="48" as="alternateBounds" />
          </mxGeometry>
        </mxCell>
        <mxCell id="v3DIgEk8iNA0IUUkxwRB-150" value="" style="shape=partialRectangle;collapsible=0;dropTarget=0;pointerEvents=0;fillColor=none;points=[[0,0.5],[1,0.5]];portConstraint=eastwest;top=0;left=0;right=0;bottom=0;" vertex="1" parent="v3DIgEk8iNA0IUUkxwRB-140">
          <mxGeometry y="158" width="187" height="30" as="geometry" />
        </mxCell>
        <mxCell id="v3DIgEk8iNA0IUUkxwRB-151" value="" style="shape=partialRectangle;overflow=hidden;connectable=0;fillColor=none;top=0;left=0;bottom=0;right=0;" vertex="1" parent="v3DIgEk8iNA0IUUkxwRB-150">
          <mxGeometry width="30" height="30" as="geometry">
            <mxRectangle width="30" height="30" as="alternateBounds" />
          </mxGeometry>
        </mxCell>
        <mxCell id="v3DIgEk8iNA0IUUkxwRB-152" value="company_name" style="shape=partialRectangle;overflow=hidden;connectable=0;fillColor=none;top=0;left=0;bottom=0;right=0;align=left;spacingLeft=6;fontSize=10;" vertex="1" parent="v3DIgEk8iNA0IUUkxwRB-150">
          <mxGeometry x="30" width="157" height="30" as="geometry">
            <mxRectangle width="157" height="30" as="alternateBounds" />
          </mxGeometry>
        </mxCell>
        <mxCell id="v3DIgEk8iNA0IUUkxwRB-153" value="" style="shape=partialRectangle;collapsible=0;dropTarget=0;pointerEvents=0;fillColor=none;points=[[0,0.5],[1,0.5]];portConstraint=eastwest;top=0;left=0;right=0;bottom=0;" vertex="1" parent="v3DIgEk8iNA0IUUkxwRB-140">
          <mxGeometry y="188" width="187" height="27" as="geometry" />
        </mxCell>
        <mxCell id="v3DIgEk8iNA0IUUkxwRB-154" value="" style="shape=partialRectangle;overflow=hidden;connectable=0;fillColor=none;top=0;left=0;bottom=0;right=0;" vertex="1" parent="v3DIgEk8iNA0IUUkxwRB-153">
          <mxGeometry width="30" height="27" as="geometry">
            <mxRectangle width="30" height="27" as="alternateBounds" />
          </mxGeometry>
        </mxCell>
        <mxCell id="v3DIgEk8iNA0IUUkxwRB-155" value="num_of_products" style="shape=partialRectangle;overflow=hidden;connectable=0;fillColor=none;top=0;left=0;bottom=0;right=0;align=left;spacingLeft=6;fontSize=10;" vertex="1" parent="v3DIgEk8iNA0IUUkxwRB-153">
          <mxGeometry x="30" width="157" height="27" as="geometry">
            <mxRectangle width="157" height="27" as="alternateBounds" />
          </mxGeometry>
        </mxCell>
        <mxCell id="v3DIgEk8iNA0IUUkxwRB-156" value="" style="shape=partialRectangle;collapsible=0;dropTarget=0;pointerEvents=0;fillColor=none;points=[[0,0.5],[1,0.5]];portConstraint=eastwest;top=0;left=0;right=0;bottom=0;" vertex="1" parent="v3DIgEk8iNA0IUUkxwRB-140">
          <mxGeometry y="215" width="187" height="27" as="geometry" />
        </mxCell>
        <mxCell id="v3DIgEk8iNA0IUUkxwRB-157" value="" style="shape=partialRectangle;overflow=hidden;connectable=0;fillColor=none;top=0;left=0;bottom=0;right=0;" vertex="1" parent="v3DIgEk8iNA0IUUkxwRB-156">
          <mxGeometry width="30" height="27" as="geometry">
            <mxRectangle width="30" height="27" as="alternateBounds" />
          </mxGeometry>
        </mxCell>
        <mxCell id="v3DIgEk8iNA0IUUkxwRB-158" value="total_sum()" style="shape=partialRectangle;overflow=hidden;connectable=0;fillColor=none;top=0;left=0;bottom=0;right=0;align=left;spacingLeft=6;fontSize=10;" vertex="1" parent="v3DIgEk8iNA0IUUkxwRB-156">
          <mxGeometry x="30" width="157" height="27" as="geometry">
            <mxRectangle width="157" height="27" as="alternateBounds" />
          </mxGeometry>
        </mxCell>
        <mxCell id="v3DIgEk8iNA0IUUkxwRB-159" value="manufacturer" style="shape=table;startSize=30;container=1;collapsible=1;childLayout=tableLayout;fixedRows=1;rowLines=0;fontStyle=1;align=center;resizeLast=1;fillColor=#e3c800;strokeColor=#B09500;fontColor=default;strokeWidth=3;perimeterSpacing=0;shadow=0;rounded=1;sketch=0;swimlaneFillColor=default;fontSize=10;labelBackgroundColor=none;horizontal=1;" vertex="1" parent="1">
          <mxGeometry x="930" y="850" width="187" height="190.00000000000068" as="geometry" />
        </mxCell>
        <mxCell id="v3DIgEk8iNA0IUUkxwRB-160" value="" style="shape=partialRectangle;collapsible=0;dropTarget=0;pointerEvents=0;fillColor=none;points=[[0,0.5],[1,0.5]];portConstraint=eastwest;top=0;left=0;right=0;bottom=1;" vertex="1" parent="v3DIgEk8iNA0IUUkxwRB-159">
          <mxGeometry y="30" width="187" height="30" as="geometry" />
        </mxCell>
        <mxCell id="v3DIgEk8iNA0IUUkxwRB-161" value="PK" style="shape=partialRectangle;overflow=hidden;connectable=0;fillColor=none;top=0;left=0;bottom=0;right=0;fontStyle=1;" vertex="1" parent="v3DIgEk8iNA0IUUkxwRB-160">
          <mxGeometry width="30" height="30" as="geometry">
            <mxRectangle width="30" height="30" as="alternateBounds" />
          </mxGeometry>
        </mxCell>
        <mxCell id="v3DIgEk8iNA0IUUkxwRB-162" value="manufacturer_id" style="shape=partialRectangle;overflow=hidden;connectable=0;fillColor=none;top=0;left=0;bottom=0;right=0;align=left;spacingLeft=6;fontStyle=5;fontSize=10;" vertex="1" parent="v3DIgEk8iNA0IUUkxwRB-160">
          <mxGeometry x="30" width="157" height="30" as="geometry">
            <mxRectangle width="157" height="30" as="alternateBounds" />
          </mxGeometry>
        </mxCell>
        <mxCell id="v3DIgEk8iNA0IUUkxwRB-163" value="" style="shape=partialRectangle;collapsible=0;dropTarget=0;pointerEvents=0;fillColor=none;points=[[0,0.5],[1,0.5]];portConstraint=eastwest;top=0;left=0;right=0;bottom=0;" vertex="1" parent="v3DIgEk8iNA0IUUkxwRB-159">
          <mxGeometry y="60" width="187" height="50" as="geometry" />
        </mxCell>
        <mxCell id="v3DIgEk8iNA0IUUkxwRB-164" value="" style="shape=partialRectangle;overflow=hidden;connectable=0;fillColor=none;top=0;left=0;bottom=0;right=0;" vertex="1" parent="v3DIgEk8iNA0IUUkxwRB-163">
          <mxGeometry width="30" height="50" as="geometry">
            <mxRectangle width="30" height="50" as="alternateBounds" />
          </mxGeometry>
        </mxCell>
        <mxCell id="v3DIgEk8iNA0IUUkxwRB-165" value="manufacturer_name" style="shape=partialRectangle;overflow=hidden;connectable=0;fillColor=none;top=0;left=0;bottom=0;right=0;align=left;spacingLeft=6;fontSize=10;" vertex="1" parent="v3DIgEk8iNA0IUUkxwRB-163">
          <mxGeometry x="30" width="157" height="50" as="geometry">
            <mxRectangle width="157" height="50" as="alternateBounds" />
          </mxGeometry>
        </mxCell>
        <mxCell id="v3DIgEk8iNA0IUUkxwRB-166" value="" style="shape=partialRectangle;collapsible=0;dropTarget=0;pointerEvents=0;fillColor=none;points=[[0,0.5],[1,0.5]];portConstraint=eastwest;top=0;left=0;right=0;bottom=0;" vertex="1" parent="v3DIgEk8iNA0IUUkxwRB-159">
          <mxGeometry y="110" width="187" height="48" as="geometry" />
        </mxCell>
        <mxCell id="v3DIgEk8iNA0IUUkxwRB-167" value="" style="shape=partialRectangle;overflow=hidden;connectable=0;fillColor=none;top=0;left=0;bottom=0;right=0;" vertex="1" parent="v3DIgEk8iNA0IUUkxwRB-166">
          <mxGeometry width="30" height="48" as="geometry">
            <mxRectangle width="30" height="48" as="alternateBounds" />
          </mxGeometry>
        </mxCell>
        <mxCell id="v3DIgEk8iNA0IUUkxwRB-168" value="address&#xa;        city&#xa;        street" style="shape=partialRectangle;overflow=hidden;connectable=0;fillColor=none;top=0;left=0;bottom=0;right=0;align=left;spacingLeft=6;fontSize=10;" vertex="1" parent="v3DIgEk8iNA0IUUkxwRB-166">
          <mxGeometry x="30" width="157" height="48" as="geometry">
            <mxRectangle width="157" height="48" as="alternateBounds" />
          </mxGeometry>
        </mxCell>
        <mxCell id="v3DIgEk8iNA0IUUkxwRB-184" value="" style="shape=partialRectangle;collapsible=0;dropTarget=0;pointerEvents=0;fillColor=none;points=[[0,0.5],[1,0.5]];portConstraint=eastwest;top=0;left=0;right=0;bottom=0;" vertex="1" parent="v3DIgEk8iNA0IUUkxwRB-159">
          <mxGeometry y="158" width="187" height="32" as="geometry" />
        </mxCell>
        <mxCell id="v3DIgEk8iNA0IUUkxwRB-185" value="FK" style="shape=partialRectangle;overflow=hidden;connectable=0;fillColor=none;top=0;left=0;bottom=0;right=0;" vertex="1" parent="v3DIgEk8iNA0IUUkxwRB-184">
          <mxGeometry width="30" height="32" as="geometry">
            <mxRectangle width="30" height="32" as="alternateBounds" />
          </mxGeometry>
        </mxCell>
        <mxCell id="v3DIgEk8iNA0IUUkxwRB-186" value="dealers_id" style="shape=partialRectangle;overflow=hidden;connectable=0;fillColor=none;top=0;left=0;bottom=0;right=0;align=left;spacingLeft=6;fontSize=10;" vertex="1" parent="v3DIgEk8iNA0IUUkxwRB-184">
          <mxGeometry x="30" width="157" height="32" as="geometry">
            <mxRectangle width="157" height="32" as="alternateBounds" />
          </mxGeometry>
        </mxCell>
        <mxCell id="QrNMYMhB6Kpb2GTDHxcy-3" value="works_for" style="shape=rhombus;perimeter=rhombusPerimeter;whiteSpace=wrap;html=1;align=center;rounded=1;shadow=0;labelBackgroundColor=none;sketch=0;fontSize=10;fontColor=default;strokeWidth=1;fillColor=none;gradientColor=none;rotation=0;" vertex="1" parent="1">
          <mxGeometry x="590" y="938" width="120" height="60" as="geometry" />
        </mxCell>
        <mxCell id="QrNMYMhB6Kpb2GTDHxcy-5" value="" style="edgeStyle=entityRelationEdgeStyle;fontSize=12;html=1;endArrow=ERoneToMany;rounded=0;fontColor=default;exitX=0;exitY=0.5;exitDx=0;exitDy=0;entryX=1;entryY=0.5;entryDx=0;entryDy=0;startArrow=none;" edge="1" parent="1" source="QrNMYMhB6Kpb2GTDHxcy-6" target="v3DIgEk8iNA0IUUkxwRB-83">
          <mxGeometry width="100" height="100" relative="1" as="geometry">
            <mxPoint x="247" y="530" as="sourcePoint" />
            <mxPoint x="347" y="430" as="targetPoint" />
          </mxGeometry>
        </mxCell>
        <mxCell id="QrNMYMhB6Kpb2GTDHxcy-6" value="brand_model" style="shape=rhombus;perimeter=rhombusPerimeter;whiteSpace=wrap;html=1;align=center;rounded=1;shadow=0;labelBackgroundColor=none;sketch=0;fontSize=10;fontColor=default;strokeWidth=1;fillColor=none;gradientColor=none;rotation=0;" vertex="1" parent="1">
          <mxGeometry x="407.62" y="430" width="92.38" height="59.86" as="geometry" />
        </mxCell>
        <mxCell id="QrNMYMhB6Kpb2GTDHxcy-7" value="" style="edgeStyle=entityRelationEdgeStyle;fontSize=12;html=1;endArrow=none;rounded=0;fontColor=default;exitX=0;exitY=0.5;exitDx=0;exitDy=0;entryX=1;entryY=0.5;entryDx=0;entryDy=0;" edge="1" parent="1" source="v3DIgEk8iNA0IUUkxwRB-93" target="QrNMYMhB6Kpb2GTDHxcy-6">
          <mxGeometry width="100" height="100" relative="1" as="geometry">
            <mxPoint x="460" y="335" as="sourcePoint" />
            <mxPoint x="257" y="425" as="targetPoint" />
          </mxGeometry>
        </mxCell>
        <mxCell id="QrNMYMhB6Kpb2GTDHxcy-8" value="" style="edgeStyle=entityRelationEdgeStyle;fontSize=12;html=1;endArrow=ERoneToMany;rounded=0;fontColor=default;exitX=0;exitY=0.5;exitDx=0;exitDy=0;entryX=1;entryY=0.5;entryDx=0;entryDy=0;startArrow=none;" edge="1" parent="1" source="QrNMYMhB6Kpb2GTDHxcy-9" target="v3DIgEk8iNA0IUUkxwRB-10">
          <mxGeometry width="100" height="100" relative="1" as="geometry">
            <mxPoint x="257" y="300" as="sourcePoint" />
            <mxPoint x="240" y="100" as="targetPoint" />
          </mxGeometry>
        </mxCell>
        <mxCell id="QrNMYMhB6Kpb2GTDHxcy-9" value="veh_customer" style="shape=rhombus;perimeter=rhombusPerimeter;whiteSpace=wrap;html=1;align=center;rounded=1;shadow=0;labelBackgroundColor=none;sketch=0;fontSize=10;fontColor=default;strokeWidth=1;fillColor=none;gradientColor=none;rotation=0;" vertex="1" parent="1">
          <mxGeometry x="300" y="100.95" width="79.95" height="59.05" as="geometry" />
        </mxCell>
        <mxCell id="QrNMYMhB6Kpb2GTDHxcy-10" value="" style="edgeStyle=entityRelationEdgeStyle;fontSize=12;html=1;endArrow=none;rounded=0;fontColor=default;exitX=0;exitY=0.5;exitDx=0;exitDy=0;entryX=1;entryY=0.5;entryDx=0;entryDy=0;" edge="1" parent="1" source="v3DIgEk8iNA0IUUkxwRB-55" target="QrNMYMhB6Kpb2GTDHxcy-9">
          <mxGeometry width="100" height="100" relative="1" as="geometry">
            <mxPoint x="370" y="85" as="sourcePoint" />
            <mxPoint x="217" y="173.0000000000001" as="targetPoint" />
          </mxGeometry>
        </mxCell>
        <mxCell id="QrNMYMhB6Kpb2GTDHxcy-12" value="" style="edgeStyle=entityRelationEdgeStyle;fontSize=12;html=1;endArrow=ERmandOne;startArrow=none;rounded=0;fontColor=default;entryX=1;entryY=0.5;entryDx=0;entryDy=0;" edge="1" parent="1" source="QrNMYMhB6Kpb2GTDHxcy-13" target="v3DIgEk8iNA0IUUkxwRB-93">
          <mxGeometry width="100" height="100" relative="1" as="geometry">
            <mxPoint x="920" y="920" as="sourcePoint" />
            <mxPoint x="760" y="565" as="targetPoint" />
          </mxGeometry>
        </mxCell>
        <mxCell id="QrNMYMhB6Kpb2GTDHxcy-13" value="brand_manu" style="shape=rhombus;perimeter=rhombusPerimeter;whiteSpace=wrap;html=1;align=center;rounded=1;shadow=0;labelBackgroundColor=none;sketch=0;fontSize=10;fontColor=default;strokeWidth=1;fillColor=none;gradientColor=none;rotation=0;" vertex="1" parent="1">
          <mxGeometry x="900" y="670" width="120" height="60" as="geometry" />
        </mxCell>
        <mxCell id="QrNMYMhB6Kpb2GTDHxcy-14" value="" style="edgeStyle=entityRelationEdgeStyle;fontSize=12;html=1;endArrow=none;startArrow=ERmandOne;rounded=0;fontColor=default;entryX=1;entryY=0.5;entryDx=0;entryDy=0;" edge="1" parent="1" source="v3DIgEk8iNA0IUUkxwRB-160" target="QrNMYMhB6Kpb2GTDHxcy-13">
          <mxGeometry width="100" height="100" relative="1" as="geometry">
            <mxPoint x="927" y="915" as="sourcePoint" />
            <mxPoint x="757" y="565" as="targetPoint" />
          </mxGeometry>
        </mxCell>
        <mxCell id="QrNMYMhB6Kpb2GTDHxcy-15" value="" style="edgeStyle=entityRelationEdgeStyle;fontSize=12;html=1;endArrow=ERmany;startArrow=none;rounded=0;fontColor=default;" edge="1" parent="1" source="QrNMYMhB6Kpb2GTDHxcy-17" target="v3DIgEk8iNA0IUUkxwRB-178">
          <mxGeometry width="100" height="100" relative="1" as="geometry">
            <mxPoint x="160" y="680" as="sourcePoint" />
            <mxPoint x="110" y="510" as="targetPoint" />
          </mxGeometry>
        </mxCell>
        <mxCell id="QrNMYMhB6Kpb2GTDHxcy-17" value="model_sup" style="shape=rhombus;perimeter=rhombusPerimeter;whiteSpace=wrap;html=1;align=center;rounded=1;shadow=0;labelBackgroundColor=none;sketch=0;fontSize=10;fontColor=default;strokeWidth=1;fillColor=none;gradientColor=none;rotation=0;" vertex="1" parent="1">
          <mxGeometry x="340" y="640" width="120" height="60" as="geometry" />
        </mxCell>
        <mxCell id="QrNMYMhB6Kpb2GTDHxcy-18" value="" style="edgeStyle=entityRelationEdgeStyle;fontSize=12;html=1;endArrow=none;startArrow=ERmany;rounded=0;fontColor=default;exitX=1;exitY=0.5;exitDx=0;exitDy=0;" edge="1" parent="1" source="v3DIgEk8iNA0IUUkxwRB-141" target="QrNMYMhB6Kpb2GTDHxcy-17">
          <mxGeometry width="100" height="100" relative="1" as="geometry">
            <mxPoint x="327" y="924" as="sourcePoint" />
            <mxPoint x="120" y="430" as="targetPoint" />
          </mxGeometry>
        </mxCell>
        <mxCell id="QrNMYMhB6Kpb2GTDHxcy-19" value="" style="edgeStyle=entityRelationEdgeStyle;fontSize=12;html=1;endArrow=ERoneToMany;rounded=0;fontColor=default;exitX=1;exitY=0.5;exitDx=0;exitDy=0;startArrow=none;" edge="1" parent="1" source="QrNMYMhB6Kpb2GTDHxcy-20" target="v3DIgEk8iNA0IUUkxwRB-106">
          <mxGeometry width="100" height="100" relative="1" as="geometry">
            <mxPoint x="290" y="310" as="sourcePoint" />
            <mxPoint x="880" y="230" as="targetPoint" />
          </mxGeometry>
        </mxCell>
        <mxCell id="QrNMYMhB6Kpb2GTDHxcy-20" value="mod_options" style="shape=rhombus;perimeter=rhombusPerimeter;whiteSpace=wrap;html=1;align=center;rounded=1;shadow=0;labelBackgroundColor=none;sketch=0;fontSize=10;fontColor=default;strokeWidth=1;fillColor=none;gradientColor=none;rotation=0;" vertex="1" parent="1">
          <mxGeometry x="480" y="305" width="120" height="60" as="geometry" />
        </mxCell>
        <mxCell id="QrNMYMhB6Kpb2GTDHxcy-21" value="" style="edgeStyle=entityRelationEdgeStyle;fontSize=12;html=1;endArrow=none;rounded=0;fontColor=default;exitX=1;exitY=0.5;exitDx=0;exitDy=0;" edge="1" parent="1" source="v3DIgEk8iNA0IUUkxwRB-77" target="QrNMYMhB6Kpb2GTDHxcy-20">
          <mxGeometry width="100" height="100" relative="1" as="geometry">
            <mxPoint x="307" y="385" as="sourcePoint" />
            <mxPoint x="640" y="185" as="targetPoint" />
          </mxGeometry>
        </mxCell>
        <mxCell id="QrNMYMhB6Kpb2GTDHxcy-22" value="" style="edgeStyle=entityRelationEdgeStyle;fontSize=12;html=1;endArrow=ERmandOne;startArrow=none;rounded=0;fontColor=default;entryX=1;entryY=0.5;entryDx=0;entryDy=0;" edge="1" parent="1" source="QrNMYMhB6Kpb2GTDHxcy-23" target="v3DIgEk8iNA0IUUkxwRB-67">
          <mxGeometry width="100" height="100" relative="1" as="geometry">
            <mxPoint x="920" y="351" as="sourcePoint" />
            <mxPoint x="840" y="90" as="targetPoint" />
          </mxGeometry>
        </mxCell>
        <mxCell id="QrNMYMhB6Kpb2GTDHxcy-23" value="veh_option" style="shape=rhombus;perimeter=rhombusPerimeter;whiteSpace=wrap;html=1;align=center;rounded=1;shadow=0;labelBackgroundColor=none;sketch=0;fontSize=10;fontColor=default;strokeWidth=1;fillColor=none;gradientColor=none;" vertex="1" parent="1">
          <mxGeometry x="797" y="140" width="120" height="60" as="geometry" />
        </mxCell>
        <mxCell id="QrNMYMhB6Kpb2GTDHxcy-24" value="" style="edgeStyle=entityRelationEdgeStyle;fontSize=12;html=1;endArrow=none;startArrow=ERmandOne;rounded=0;fontColor=default;entryX=1;entryY=0.5;entryDx=0;entryDy=0;" edge="1" parent="1" target="QrNMYMhB6Kpb2GTDHxcy-23">
          <mxGeometry width="100" height="100" relative="1" as="geometry">
            <mxPoint x="920" y="351" as="sourcePoint" />
            <mxPoint x="767" y="-85" as="targetPoint" />
          </mxGeometry>
        </mxCell>
        <mxCell id="QrNMYMhB6Kpb2GTDHxcy-25" value="" style="edgeStyle=entityRelationEdgeStyle;fontSize=12;html=1;endArrow=ERoneToMany;rounded=0;fontColor=default;entryX=0;entryY=0.5;entryDx=0;entryDy=0;exitX=1;exitY=0.5;exitDx=0;exitDy=0;startArrow=none;" edge="1" parent="1" source="QrNMYMhB6Kpb2GTDHxcy-26" target="v3DIgEk8iNA0IUUkxwRB-122">
          <mxGeometry width="100" height="100" relative="1" as="geometry">
            <mxPoint x="860" y="-10" as="sourcePoint" />
            <mxPoint x="960" y="-110" as="targetPoint" />
          </mxGeometry>
        </mxCell>
        <mxCell id="QrNMYMhB6Kpb2GTDHxcy-26" value="veh_deal" style="shape=rhombus;perimeter=rhombusPerimeter;whiteSpace=wrap;html=1;align=center;rounded=1;shadow=0;labelBackgroundColor=none;sketch=0;fontSize=10;fontColor=default;strokeWidth=1;fillColor=none;gradientColor=none;" vertex="1" parent="1">
          <mxGeometry x="880" y="-190" width="120" height="60" as="geometry" />
        </mxCell>
        <mxCell id="QrNMYMhB6Kpb2GTDHxcy-27" value="" style="edgeStyle=entityRelationEdgeStyle;fontSize=12;html=1;endArrow=none;rounded=0;fontColor=default;entryX=0;entryY=0.5;entryDx=0;entryDy=0;exitX=1;exitY=0.5;exitDx=0;exitDy=0;" edge="1" parent="1" source="v3DIgEk8iNA0IUUkxwRB-55" target="QrNMYMhB6Kpb2GTDHxcy-26">
          <mxGeometry width="100" height="100" relative="1" as="geometry">
            <mxPoint x="767" y="-85" as="sourcePoint" />
            <mxPoint x="1010" y="104" as="targetPoint" />
          </mxGeometry>
        </mxCell>
        <mxCell id="QrNMYMhB6Kpb2GTDHxcy-70" value="" style="endArrow=none;html=1;rounded=0;fontSize=10;fontColor=default;entryX=0.25;entryY=0;entryDx=0;entryDy=0;exitX=0.5;exitY=1;exitDx=0;exitDy=0;" edge="1" parent="1" target="C-vyLk0tnHw3VtMMgP7b-2">
          <mxGeometry relative="1" as="geometry">
            <mxPoint x="30" y="-60.00000000000023" as="sourcePoint" />
            <mxPoint x="196.5" y="-10" as="targetPoint" />
          </mxGeometry>
        </mxCell>
        <mxCell id="QrNMYMhB6Kpb2GTDHxcy-71" value="" style="endArrow=none;html=1;rounded=0;fontSize=10;fontColor=default;exitX=0.5;exitY=1;exitDx=0;exitDy=0;entryX=0.807;entryY=0.007;entryDx=0;entryDy=0;entryPerimeter=0;" edge="1" parent="1" target="C-vyLk0tnHw3VtMMgP7b-2">
          <mxGeometry relative="1" as="geometry">
            <mxPoint x="190" y="-90.00000000000023" as="sourcePoint" />
            <mxPoint x="270" y="-30" as="targetPoint" />
          </mxGeometry>
        </mxCell>
        <mxCell id="QrNMYMhB6Kpb2GTDHxcy-75" value="new_customer" style="shape=table;startSize=30;container=1;collapsible=1;childLayout=tableLayout;fixedRows=1;rowLines=0;fontStyle=1;align=center;resizeLast=1;fillColor=#e3c800;strokeColor=#B09500;fontColor=default;strokeWidth=3;perimeterSpacing=0;shadow=0;rounded=1;sketch=0;swimlaneFillColor=default;fontSize=10;labelBackgroundColor=none;horizontal=1;" vertex="1" parent="1">
          <mxGeometry x="130" y="-150" width="187" height="69" as="geometry" />
        </mxCell>
        <mxCell id="QrNMYMhB6Kpb2GTDHxcy-79" value="" style="shape=partialRectangle;collapsible=0;dropTarget=0;pointerEvents=0;fillColor=none;points=[[0,0.5],[1,0.5]];portConstraint=eastwest;top=0;left=0;right=0;bottom=0;" vertex="1" parent="QrNMYMhB6Kpb2GTDHxcy-75">
          <mxGeometry y="30" width="187" height="39" as="geometry" />
        </mxCell>
        <mxCell id="QrNMYMhB6Kpb2GTDHxcy-80" value="" style="shape=partialRectangle;overflow=hidden;connectable=0;fillColor=none;top=0;left=0;bottom=0;right=0;" vertex="1" parent="QrNMYMhB6Kpb2GTDHxcy-79">
          <mxGeometry width="30" height="39" as="geometry">
            <mxRectangle width="30" height="39" as="alternateBounds" />
          </mxGeometry>
        </mxCell>
        <mxCell id="QrNMYMhB6Kpb2GTDHxcy-81" value="" style="shape=partialRectangle;overflow=hidden;connectable=0;fillColor=none;top=0;left=0;bottom=0;right=0;align=left;spacingLeft=6;fontSize=10;" vertex="1" parent="QrNMYMhB6Kpb2GTDHxcy-79">
          <mxGeometry x="30" width="157" height="39" as="geometry">
            <mxRectangle width="157" height="39" as="alternateBounds" />
          </mxGeometry>
        </mxCell>
        <mxCell id="QrNMYMhB6Kpb2GTDHxcy-97" value="regular_customer" style="shape=table;startSize=30;container=1;collapsible=1;childLayout=tableLayout;fixedRows=1;rowLines=0;fontStyle=1;align=center;resizeLast=1;fillColor=#e3c800;strokeColor=#B09500;fontColor=default;strokeWidth=3;perimeterSpacing=0;shadow=0;rounded=1;sketch=0;swimlaneFillColor=default;fontSize=10;labelBackgroundColor=none;horizontal=1;" vertex="1" parent="1">
          <mxGeometry x="-100" y="-110" width="187" height="69" as="geometry" />
        </mxCell>
        <mxCell id="QrNMYMhB6Kpb2GTDHxcy-98" value="" style="shape=partialRectangle;collapsible=0;dropTarget=0;pointerEvents=0;fillColor=none;points=[[0,0.5],[1,0.5]];portConstraint=eastwest;top=0;left=0;right=0;bottom=0;" vertex="1" parent="QrNMYMhB6Kpb2GTDHxcy-97">
          <mxGeometry y="30" width="187" height="39" as="geometry" />
        </mxCell>
        <mxCell id="QrNMYMhB6Kpb2GTDHxcy-99" value="" style="shape=partialRectangle;overflow=hidden;connectable=0;fillColor=none;top=0;left=0;bottom=0;right=0;" vertex="1" parent="QrNMYMhB6Kpb2GTDHxcy-98">
          <mxGeometry width="30" height="39" as="geometry">
            <mxRectangle width="30" height="39" as="alternateBounds" />
          </mxGeometry>
        </mxCell>
        <mxCell id="QrNMYMhB6Kpb2GTDHxcy-100" value="discount_card" style="shape=partialRectangle;overflow=hidden;connectable=0;fillColor=none;top=0;left=0;bottom=0;right=0;align=left;spacingLeft=6;fontSize=10;" vertex="1" parent="QrNMYMhB6Kpb2GTDHxcy-98">
          <mxGeometry x="30" width="157" height="39" as="geometry">
            <mxRectangle width="157" height="39" as="alternateBounds" />
          </mxGeometry>
        </mxCell>
        <mxCell id="QrNMYMhB6Kpb2GTDHxcy-101" value="" style="endArrow=none;html=1;rounded=0;fontSize=10;fontColor=default;exitX=0.5;exitY=0;exitDx=0;exitDy=0;entryX=0.556;entryY=-0.001;entryDx=0;entryDy=0;entryPerimeter=0;" edge="1" parent="1" source="C-vyLk0tnHw3VtMMgP7b-2" target="v3DIgEk8iNA0IUUkxwRB-121">
          <mxGeometry relative="1" as="geometry">
            <mxPoint x="510" y="-310" as="sourcePoint" />
            <mxPoint x="670" y="-310" as="targetPoint" />
            <Array as="points">
              <mxPoint x="117" y="-290" />
              <mxPoint x="610" y="-290" />
              <mxPoint x="1114" y="-290" />
            </Array>
          </mxGeometry>
        </mxCell>
        <mxCell id="QrNMYMhB6Kpb2GTDHxcy-102" value="person" style="shape=table;startSize=30;container=1;collapsible=1;childLayout=tableLayout;fixedRows=1;rowLines=0;fontStyle=1;align=center;resizeLast=1;fillColor=#e3c800;strokeColor=#B09500;fontColor=default;strokeWidth=3;perimeterSpacing=0;shadow=0;rounded=1;sketch=0;swimlaneFillColor=default;fontSize=10;labelBackgroundColor=none;horizontal=1;" vertex="1" parent="1">
          <mxGeometry x="540" y="-320" width="187" height="69" as="geometry" />
        </mxCell>
        <mxCell id="QrNMYMhB6Kpb2GTDHxcy-103" value="" style="shape=partialRectangle;collapsible=0;dropTarget=0;pointerEvents=0;fillColor=none;points=[[0,0.5],[1,0.5]];portConstraint=eastwest;top=0;left=0;right=0;bottom=0;" vertex="1" parent="QrNMYMhB6Kpb2GTDHxcy-102">
          <mxGeometry y="30" width="187" height="39" as="geometry" />
        </mxCell>
        <mxCell id="QrNMYMhB6Kpb2GTDHxcy-104" value="" style="shape=partialRectangle;overflow=hidden;connectable=0;fillColor=none;top=0;left=0;bottom=0;right=0;" vertex="1" parent="QrNMYMhB6Kpb2GTDHxcy-103">
          <mxGeometry width="30" height="39" as="geometry">
            <mxRectangle width="30" height="39" as="alternateBounds" />
          </mxGeometry>
        </mxCell>
        <mxCell id="QrNMYMhB6Kpb2GTDHxcy-105" value="person_name" style="shape=partialRectangle;overflow=hidden;connectable=0;fillColor=none;top=0;left=0;bottom=0;right=0;align=left;spacingLeft=6;fontSize=10;" vertex="1" parent="QrNMYMhB6Kpb2GTDHxcy-103">
          <mxGeometry x="30" width="157" height="39" as="geometry">
            <mxRectangle width="157" height="39" as="alternateBounds" />
          </mxGeometry>
        </mxCell>
        <mxCell id="QrNMYMhB6Kpb2GTDHxcy-106" value="" style="shape=link;html=1;rounded=0;fontSize=10;fontColor=default;entryX=0.047;entryY=-0.069;entryDx=0;entryDy=0;entryPerimeter=0;exitX=1;exitY=0.5;exitDx=0;exitDy=0;" edge="1" parent="1" source="QrNMYMhB6Kpb2GTDHxcy-3" target="v3DIgEk8iNA0IUUkxwRB-166">
          <mxGeometry width="100" relative="1" as="geometry">
            <mxPoint x="797" y="960" as="sourcePoint" />
            <mxPoint x="897" y="960" as="targetPoint" />
          </mxGeometry>
        </mxCell>
        <mxCell id="QrNMYMhB6Kpb2GTDHxcy-107" value="" style="endArrow=classic;html=1;rounded=0;fontSize=10;fontColor=default;exitX=0.5;exitY=0;exitDx=0;exitDy=0;" edge="1" parent="1" source="QrNMYMhB6Kpb2GTDHxcy-3" target="QrNMYMhB6Kpb2GTDHxcy-108">
          <mxGeometry width="50" height="50" relative="1" as="geometry">
            <mxPoint x="650" y="938" as="sourcePoint" />
            <mxPoint x="650" y="860" as="targetPoint" />
          </mxGeometry>
        </mxCell>
        <mxCell id="QrNMYMhB6Kpb2GTDHxcy-108" value="&amp;nbsp;require" style="shape=rhombus;perimeter=rhombusPerimeter;whiteSpace=wrap;html=1;align=center;rounded=1;shadow=0;sketch=0;fontSize=10;fontColor=default;strokeWidth=1;fillColor=none;" vertex="1" parent="1">
          <mxGeometry x="610" y="860" width="80" height="40" as="geometry" />
        </mxCell>
        <mxCell id="QrNMYMhB6Kpb2GTDHxcy-109" value="" style="endArrow=none;html=1;rounded=0;fontSize=10;fontColor=default;exitX=1;exitY=0;exitDx=0;exitDy=0;" edge="1" parent="1" source="QrNMYMhB6Kpb2GTDHxcy-108">
          <mxGeometry relative="1" as="geometry">
            <mxPoint x="600" y="830" as="sourcePoint" />
            <mxPoint x="712.8571428571431" y="820" as="targetPoint" />
          </mxGeometry>
        </mxCell>
        <mxCell id="QrNMYMhB6Kpb2GTDHxcy-111" value="mechanical_equipment " style="shape=table;startSize=30;container=1;collapsible=1;childLayout=tableLayout;fixedRows=1;rowLines=0;fontStyle=1;align=center;resizeLast=1;fillColor=#e3c800;strokeColor=#B09500;fontColor=default;strokeWidth=3;perimeterSpacing=0;shadow=0;rounded=1;sketch=0;swimlaneFillColor=default;fontSize=10;labelBackgroundColor=none;horizontal=1;" vertex="1" parent="1">
          <mxGeometry x="620" y="760" width="187" height="69" as="geometry" />
        </mxCell>
        <mxCell id="QrNMYMhB6Kpb2GTDHxcy-112" value="" style="shape=partialRectangle;collapsible=0;dropTarget=0;pointerEvents=0;fillColor=none;points=[[0,0.5],[1,0.5]];portConstraint=eastwest;top=0;left=0;right=0;bottom=0;" vertex="1" parent="QrNMYMhB6Kpb2GTDHxcy-111">
          <mxGeometry y="30" width="187" height="39" as="geometry" />
        </mxCell>
        <mxCell id="QrNMYMhB6Kpb2GTDHxcy-113" value="" style="shape=partialRectangle;overflow=hidden;connectable=0;fillColor=none;top=0;left=0;bottom=0;right=0;" vertex="1" parent="QrNMYMhB6Kpb2GTDHxcy-112">
          <mxGeometry width="30" height="39" as="geometry">
            <mxRectangle width="30" height="39" as="alternateBounds" />
          </mxGeometry>
        </mxCell>
        <mxCell id="QrNMYMhB6Kpb2GTDHxcy-114" value="" style="shape=partialRectangle;overflow=hidden;connectable=0;fillColor=none;top=0;left=0;bottom=0;right=0;align=left;spacingLeft=6;fontSize=10;" vertex="1" parent="QrNMYMhB6Kpb2GTDHxcy-112">
          <mxGeometry x="30" width="157" height="39" as="geometry">
            <mxRectangle width="157" height="39" as="alternateBounds" />
          </mxGeometry>
        </mxCell>
        <mxCell id="QrNMYMhB6Kpb2GTDHxcy-115" value="" style="edgeStyle=elbowEdgeStyle;elbow=vertical;endArrow=classic;html=1;rounded=0;fontSize=10;fontColor=default;entryX=0;entryY=0.5;entryDx=0;entryDy=0;" edge="1" parent="1" target="QrNMYMhB6Kpb2GTDHxcy-3">
          <mxGeometry width="50" height="50" relative="1" as="geometry">
            <mxPoint x="397" y="968" as="sourcePoint" />
            <mxPoint x="580" y="870" as="targetPoint" />
            <Array as="points">
              <mxPoint x="510" y="968" />
            </Array>
          </mxGeometry>
        </mxCell>
      </root>
    </mxGraphModel>
  </diagram>
</mxfile>
